<?xml version="1.0" encoding="UTF-8"?>
<svg xmlns="http://www.w3.org/2000/svg" xmlns:xlink="http://www.w3.org/1999/xlink" width="185.56" height="185.56" viewBox="0 0 185.56 185.56">
<defs>
<clipPath id="clip-0">
<path clip-rule="nonzero" d="M 171 131 L 185.121094 131 L 185.121094 166 L 171 166 Z M 171 131 "/>
</clipPath>
<clipPath id="clip-1">
<path clip-rule="nonzero" d="M 180 164 L 185.121094 164 L 185.121094 166 L 180 166 Z M 180 164 "/>
</clipPath>
<clipPath id="clip-2">
<path clip-rule="nonzero" d="M 171 97 L 185.121094 97 L 185.121094 132 L 171 132 Z M 171 97 "/>
</clipPath>
<clipPath id="clip-3">
<path clip-rule="nonzero" d="M 180 131 L 185.121094 131 L 185.121094 132 L 180 132 Z M 180 131 "/>
</clipPath>
<clipPath id="clip-4">
<path clip-rule="nonzero" d="M 171 63 L 185.121094 63 L 185.121094 98 L 171 98 Z M 171 63 "/>
</clipPath>
<clipPath id="clip-5">
<path clip-rule="nonzero" d="M 180 97 L 185.121094 97 L 185.121094 98 L 180 98 Z M 180 97 "/>
</clipPath>
<clipPath id="clip-6">
<path clip-rule="nonzero" d="M 171 29 L 185.121094 29 L 185.121094 65 L 171 65 Z M 171 29 "/>
</clipPath>
<clipPath id="clip-7">
<path clip-rule="nonzero" d="M 180 63 L 185.121094 63 L 185.121094 65 L 180 65 Z M 180 63 "/>
</clipPath>
<clipPath id="clip-8">
<path clip-rule="nonzero" d="M 180 29 L 185.121094 29 L 185.121094 31 L 180 31 Z M 180 29 "/>
</clipPath>
</defs>
<path fill="none" stroke-width="5" stroke-linecap="round" stroke-linejoin="round" stroke="rgb(0%, 0%, 0%)" stroke-opacity="1" stroke-miterlimit="10" d="M 351.573868 370.759349 L 253.920986 539.909489 L 58.615222 539.909489 " transform="matrix(0.0997634, 0, 0, -0.0997634, -0.000000000000002776, 185.121041)"/>
<path fill="none" stroke-width="5" stroke-linecap="round" stroke-linejoin="round" stroke="rgb(0%, 0%, 0%)" stroke-opacity="1" stroke-miterlimit="10" d="M 58.615222 539.909489 L 0.000000000000027821 438.419405 " transform="matrix(0.0997634, 0, 0, -0.0997634, -0.000000000000002776, 185.121041)"/>
<path fill="none" stroke-width="5" stroke-linecap="round" stroke-linejoin="round" stroke="rgb(0%, 0%, 0%)" stroke-opacity="1" stroke-miterlimit="10" d="M 0.000000000000027821 303.099293 L 58.615222 201.609209 L 253.920986 201.609209 L 351.573868 370.759349 " transform="matrix(0.0997634, 0, 0, -0.0997634, -0.000000000000002776, 185.121041)"/>
<path fill="none" stroke-width="5" stroke-linecap="round" stroke-linejoin="round" stroke="rgb(0%, 0%, 0%)" stroke-opacity="1" stroke-miterlimit="10" d="M 351.573868 709.059629 L 253.920986 878.248924 L 58.615222 878.248924 " transform="matrix(0.0997634, 0, 0, -0.0997634, -0.000000000000002776, 185.121041)"/>
<path fill="none" stroke-width="5" stroke-linecap="round" stroke-linejoin="round" stroke="rgb(0%, 0%, 0%)" stroke-opacity="1" stroke-miterlimit="10" d="M 58.615222 878.248924 L 0.000000000000027821 776.719685 " transform="matrix(0.0997634, 0, 0, -0.0997634, -0.000000000000002776, 185.121041)"/>
<path fill="none" stroke-width="5" stroke-linecap="round" stroke-linejoin="round" stroke="rgb(0%, 0%, 0%)" stroke-opacity="1" stroke-miterlimit="10" d="M 0.000000000000027821 641.399573 L 58.615222 539.909489 L 253.920986 539.909489 L 351.573868 709.059629 " transform="matrix(0.0997634, 0, 0, -0.0997634, -0.000000000000002776, 185.121041)"/>
<path fill="none" stroke-width="5" stroke-linecap="round" stroke-linejoin="round" stroke="rgb(0%, 0%, 0%)" stroke-opacity="1" stroke-miterlimit="10" d="M 351.573868 1047.399064 L 253.920986 1216.549204 L 58.615222 1216.549204 " transform="matrix(0.0997634, 0, 0, -0.0997634, -0.000000000000002776, 185.121041)"/>
<path fill="none" stroke-width="5" stroke-linecap="round" stroke-linejoin="round" stroke="rgb(0%, 0%, 0%)" stroke-opacity="1" stroke-miterlimit="10" d="M 58.615222 1216.549204 L 0.000000000000027821 1115.05912 " transform="matrix(0.0997634, 0, 0, -0.0997634, -0.000000000000002776, 185.121041)"/>
<path fill="none" stroke-width="5" stroke-linecap="round" stroke-linejoin="round" stroke="rgb(0%, 0%, 0%)" stroke-opacity="1" stroke-miterlimit="10" d="M 0.000000000000027821 979.739008 L 58.615222 878.248924 L 253.920986 878.248924 L 351.573868 1047.399064 " transform="matrix(0.0997634, 0, 0, -0.0997634, -0.000000000000002776, 185.121041)"/>
<path fill="none" stroke-width="5" stroke-linecap="round" stroke-linejoin="round" stroke="rgb(0%, 0%, 0%)" stroke-opacity="1" stroke-miterlimit="10" d="M 351.573868 1385.699345 L 253.920986 1554.88864 L 58.615222 1554.88864 " transform="matrix(0.0997634, 0, 0, -0.0997634, -0.000000000000002776, 185.121041)"/>
<path fill="none" stroke-width="5" stroke-linecap="round" stroke-linejoin="round" stroke="rgb(0%, 0%, 0%)" stroke-opacity="1" stroke-miterlimit="10" d="M 58.615222 1554.88864 L 0.000000000000027821 1453.398556 " transform="matrix(0.0997634, 0, 0, -0.0997634, -0.000000000000002776, 185.121041)"/>
<path fill="none" stroke-width="5" stroke-linecap="round" stroke-linejoin="round" stroke="rgb(0%, 0%, 0%)" stroke-opacity="1" stroke-miterlimit="10" d="M 0.000000000000027821 1318.039289 L 58.615222 1216.549204 L 253.920986 1216.549204 L 351.573868 1385.699345 " transform="matrix(0.0997634, 0, 0, -0.0997634, -0.000000000000002776, 185.121041)"/>
<path fill="none" stroke-width="5" stroke-linecap="round" stroke-linejoin="round" stroke="rgb(0%, 0%, 0%)" stroke-opacity="1" stroke-miterlimit="10" d="M 351.573868 1724.03878 L 351.573868 1724.03878 " transform="matrix(0.0997634, 0, 0, -0.0997634, -0.000000000000002776, 185.121041)"/>
<path fill="none" stroke-width="5" stroke-linecap="round" stroke-linejoin="round" stroke="rgb(0%, 0%, 0%)" stroke-opacity="1" stroke-miterlimit="10" d="M 351.573868 1724.03878 L 275.612925 1855.639155 " transform="matrix(0.0997634, 0, 0, -0.0997634, -0.000000000000002776, 185.121041)"/>
<path fill="none" stroke-width="5" stroke-linecap="round" stroke-linejoin="round" stroke="rgb(0%, 0%, 0%)" stroke-opacity="1" stroke-miterlimit="10" d="M 36.923283 1855.639155 L 0.000000000000027821 1791.698836 " transform="matrix(0.0997634, 0, 0, -0.0997634, -0.000000000000002776, 185.121041)"/>
<path fill="none" stroke-width="5" stroke-linecap="round" stroke-linejoin="round" stroke="rgb(0%, 0%, 0%)" stroke-opacity="1" stroke-miterlimit="10" d="M 0.000000000000027821 1656.378724 L 58.615222 1554.88864 L 253.920986 1554.88864 L 351.573868 1724.03878 " transform="matrix(0.0997634, 0, 0, -0.0997634, -0.000000000000002776, 185.121041)"/>
<path fill="none" stroke-width="5" stroke-linecap="round" stroke-linejoin="round" stroke="rgb(0%, 0%, 0%)" stroke-opacity="1" stroke-miterlimit="10" d="M 644.571668 201.609209 L 546.918786 370.759349 L 351.573868 370.759349 L 253.920986 201.609209 L 351.573868 32.459068 L 546.918786 32.459068 L 644.571668 201.609209 " transform="matrix(0.0997634, 0, 0, -0.0997634, -0.000000000000002776, 185.121041)"/>
<path fill="none" stroke-width="5" stroke-linecap="round" stroke-linejoin="round" stroke="rgb(0%, 0%, 0%)" stroke-opacity="1" stroke-miterlimit="10" d="M 644.571668 539.909489 L 546.918786 709.059629 L 351.573868 709.059629 L 253.920986 539.909489 L 351.573868 370.759349 L 546.918786 370.759349 L 644.571668 539.909489 " transform="matrix(0.0997634, 0, 0, -0.0997634, -0.000000000000002776, 185.121041)"/>
<path fill="none" stroke-width="5" stroke-linecap="round" stroke-linejoin="round" stroke="rgb(0%, 0%, 0%)" stroke-opacity="1" stroke-miterlimit="10" d="M 644.571668 878.248924 L 546.918786 1047.399064 L 351.573868 1047.399064 L 253.920986 878.248924 L 351.573868 709.059629 L 546.918786 709.059629 L 644.571668 878.248924 " transform="matrix(0.0997634, 0, 0, -0.0997634, -0.000000000000002776, 185.121041)"/>
<path fill="none" stroke-width="5" stroke-linecap="round" stroke-linejoin="round" stroke="rgb(0%, 0%, 0%)" stroke-opacity="1" stroke-miterlimit="10" d="M 644.571668 1216.549204 L 546.918786 1385.699345 L 351.573868 1385.699345 L 253.920986 1216.549204 L 351.573868 1047.399064 L 546.918786 1047.399064 L 644.571668 1216.549204 " transform="matrix(0.0997634, 0, 0, -0.0997634, -0.000000000000002776, 185.121041)"/>
<path fill="none" stroke-width="5" stroke-linecap="round" stroke-linejoin="round" stroke="rgb(0%, 0%, 0%)" stroke-opacity="1" stroke-miterlimit="10" d="M 644.571668 1554.88864 L 546.918786 1724.03878 L 351.573868 1724.03878 L 253.920986 1554.88864 L 351.573868 1385.699345 L 546.918786 1385.699345 L 644.571668 1554.88864 " transform="matrix(0.0997634, 0, 0, -0.0997634, -0.000000000000002776, 185.121041)"/>
<path fill="none" stroke-width="5" stroke-linecap="round" stroke-linejoin="round" stroke="rgb(0%, 0%, 0%)" stroke-opacity="1" stroke-miterlimit="10" d="M 275.612925 1855.639155 L 351.573868 1724.03878 L 546.918786 1724.03878 " transform="matrix(0.0997634, 0, 0, -0.0997634, -0.000000000000002776, 185.121041)"/>
<path fill="none" stroke-width="5" stroke-linecap="round" stroke-linejoin="round" stroke="rgb(0%, 0%, 0%)" stroke-opacity="1" stroke-miterlimit="10" d="M 546.918786 1724.03878 L 622.879729 1855.639155 " transform="matrix(0.0997634, 0, 0, -0.0997634, -0.000000000000002776, 185.121041)"/>
<path fill="none" stroke-width="5" stroke-linecap="round" stroke-linejoin="round" stroke="rgb(0%, 0%, 0%)" stroke-opacity="1" stroke-miterlimit="10" d="M 937.569469 370.759349 L 839.916587 539.909489 L 644.571668 539.909489 L 546.918786 370.759349 L 644.571668 201.609209 L 839.916587 201.609209 L 937.569469 370.759349 " transform="matrix(0.0997634, 0, 0, -0.0997634, -0.000000000000002776, 185.121041)"/>
<path fill="none" stroke-width="5" stroke-linecap="round" stroke-linejoin="round" stroke="rgb(0%, 0%, 0%)" stroke-opacity="1" stroke-miterlimit="10" d="M 937.569469 709.059629 L 839.916587 878.248924 L 644.571668 878.248924 L 546.918786 709.059629 L 644.571668 539.909489 L 839.916587 539.909489 L 937.569469 709.059629 " transform="matrix(0.0997634, 0, 0, -0.0997634, -0.000000000000002776, 185.121041)"/>
<path fill="none" stroke-width="5" stroke-linecap="round" stroke-linejoin="round" stroke="rgb(0%, 0%, 0%)" stroke-opacity="1" stroke-miterlimit="10" d="M 937.569469 1047.399064 L 839.916587 1216.549204 L 644.571668 1216.549204 L 546.918786 1047.399064 L 644.571668 878.248924 L 839.916587 878.248924 L 937.569469 1047.399064 " transform="matrix(0.0997634, 0, 0, -0.0997634, -0.000000000000002776, 185.121041)"/>
<path fill="none" stroke-width="5" stroke-linecap="round" stroke-linejoin="round" stroke="rgb(0%, 0%, 0%)" stroke-opacity="1" stroke-miterlimit="10" d="M 937.569469 1385.699345 L 839.916587 1554.88864 L 644.571668 1554.88864 L 546.918786 1385.699345 L 644.571668 1216.549204 L 839.916587 1216.549204 L 937.569469 1385.699345 " transform="matrix(0.0997634, 0, 0, -0.0997634, -0.000000000000002776, 185.121041)"/>
<path fill="none" stroke-width="5" stroke-linecap="round" stroke-linejoin="round" stroke="rgb(0%, 0%, 0%)" stroke-opacity="1" stroke-miterlimit="10" d="M 937.569469 1724.03878 L 937.569469 1724.03878 " transform="matrix(0.0997634, 0, 0, -0.0997634, -0.000000000000002776, 185.121041)"/>
<path fill="none" stroke-width="5" stroke-linecap="round" stroke-linejoin="round" stroke="rgb(0%, 0%, 0%)" stroke-opacity="1" stroke-miterlimit="10" d="M 937.569469 1724.03878 L 861.608526 1855.639155 " transform="matrix(0.0997634, 0, 0, -0.0997634, -0.000000000000002776, 185.121041)"/>
<path fill="none" stroke-width="5" stroke-linecap="round" stroke-linejoin="round" stroke="rgb(0%, 0%, 0%)" stroke-opacity="1" stroke-miterlimit="10" d="M 622.879729 1855.639155 L 546.918786 1724.03878 L 644.571668 1554.88864 L 839.916587 1554.88864 L 937.569469 1724.03878 " transform="matrix(0.0997634, 0, 0, -0.0997634, -0.000000000000002776, 185.121041)"/>
<path fill="none" stroke-width="5" stroke-linecap="round" stroke-linejoin="round" stroke="rgb(0%, 0%, 0%)" stroke-opacity="1" stroke-miterlimit="10" d="M 1230.567269 201.609209 L 1132.914388 370.759349 L 937.569469 370.759349 L 839.916587 201.609209 L 937.569469 32.459068 L 1132.914388 32.459068 L 1230.567269 201.609209 " transform="matrix(0.0997634, 0, 0, -0.0997634, -0.000000000000002776, 185.121041)"/>
<path fill="none" stroke-width="5" stroke-linecap="round" stroke-linejoin="round" stroke="rgb(0%, 0%, 0%)" stroke-opacity="1" stroke-miterlimit="10" d="M 1230.567269 539.909489 L 1132.914388 709.059629 L 937.569469 709.059629 L 839.916587 539.909489 L 937.569469 370.759349 L 1132.914388 370.759349 L 1230.567269 539.909489 " transform="matrix(0.0997634, 0, 0, -0.0997634, -0.000000000000002776, 185.121041)"/>
<path fill="none" stroke-width="5" stroke-linecap="round" stroke-linejoin="round" stroke="rgb(0%, 0%, 0%)" stroke-opacity="1" stroke-miterlimit="10" d="M 1230.567269 878.248924 L 1132.914388 1047.399064 L 937.569469 1047.399064 L 839.916587 878.248924 L 937.569469 709.059629 L 1132.914388 709.059629 L 1230.567269 878.248924 " transform="matrix(0.0997634, 0, 0, -0.0997634, -0.000000000000002776, 185.121041)"/>
<path fill="none" stroke-width="5" stroke-linecap="round" stroke-linejoin="round" stroke="rgb(0%, 0%, 0%)" stroke-opacity="1" stroke-miterlimit="10" d="M 1230.567269 1216.549204 L 1132.914388 1385.699345 L 937.569469 1385.699345 L 839.916587 1216.549204 L 937.569469 1047.399064 L 1132.914388 1047.399064 L 1230.567269 1216.549204 " transform="matrix(0.0997634, 0, 0, -0.0997634, -0.000000000000002776, 185.121041)"/>
<path fill="none" stroke-width="5" stroke-linecap="round" stroke-linejoin="round" stroke="rgb(0%, 0%, 0%)" stroke-opacity="1" stroke-miterlimit="10" d="M 1230.567269 1554.88864 L 1132.914388 1724.03878 L 937.569469 1724.03878 L 839.916587 1554.88864 L 937.569469 1385.699345 L 1132.914388 1385.699345 L 1230.567269 1554.88864 " transform="matrix(0.0997634, 0, 0, -0.0997634, -0.000000000000002776, 185.121041)"/>
<path fill="none" stroke-width="5" stroke-linecap="round" stroke-linejoin="round" stroke="rgb(0%, 0%, 0%)" stroke-opacity="1" stroke-miterlimit="10" d="M 861.608526 1855.639155 L 937.569469 1724.03878 L 1132.914388 1724.03878 " transform="matrix(0.0997634, 0, 0, -0.0997634, -0.000000000000002776, 185.121041)"/>
<path fill="none" stroke-width="5" stroke-linecap="round" stroke-linejoin="round" stroke="rgb(0%, 0%, 0%)" stroke-opacity="1" stroke-miterlimit="10" d="M 1132.914388 1724.03878 L 1208.87533 1855.639155 " transform="matrix(0.0997634, 0, 0, -0.0997634, -0.000000000000002776, 185.121041)"/>
<path fill="none" stroke-width="5" stroke-linecap="round" stroke-linejoin="round" stroke="rgb(0%, 0%, 0%)" stroke-opacity="1" stroke-miterlimit="10" d="M 1523.56507 370.759349 L 1425.912188 539.909489 L 1230.567269 539.909489 L 1132.914388 370.759349 L 1230.567269 201.609209 L 1425.912188 201.609209 L 1523.56507 370.759349 " transform="matrix(0.0997634, 0, 0, -0.0997634, -0.000000000000002776, 185.121041)"/>
<path fill="none" stroke-width="5" stroke-linecap="round" stroke-linejoin="round" stroke="rgb(0%, 0%, 0%)" stroke-opacity="1" stroke-miterlimit="10" d="M 1523.56507 709.059629 L 1425.912188 878.248924 L 1230.567269 878.248924 L 1132.914388 709.059629 L 1230.567269 539.909489 L 1425.912188 539.909489 L 1523.56507 709.059629 " transform="matrix(0.0997634, 0, 0, -0.0997634, -0.000000000000002776, 185.121041)"/>
<path fill="none" stroke-width="5" stroke-linecap="round" stroke-linejoin="round" stroke="rgb(0%, 0%, 0%)" stroke-opacity="1" stroke-miterlimit="10" d="M 1523.56507 1047.399064 L 1425.912188 1216.549204 L 1230.567269 1216.549204 L 1132.914388 1047.399064 L 1230.567269 878.248924 L 1425.912188 878.248924 L 1523.56507 1047.399064 " transform="matrix(0.0997634, 0, 0, -0.0997634, -0.000000000000002776, 185.121041)"/>
<path fill="none" stroke-width="5" stroke-linecap="round" stroke-linejoin="round" stroke="rgb(0%, 0%, 0%)" stroke-opacity="1" stroke-miterlimit="10" d="M 1523.56507 1385.699345 L 1425.912188 1554.88864 L 1230.567269 1554.88864 L 1132.914388 1385.699345 L 1230.567269 1216.549204 L 1425.912188 1216.549204 L 1523.56507 1385.699345 " transform="matrix(0.0997634, 0, 0, -0.0997634, -0.000000000000002776, 185.121041)"/>
<path fill="none" stroke-width="5" stroke-linecap="round" stroke-linejoin="round" stroke="rgb(0%, 0%, 0%)" stroke-opacity="1" stroke-miterlimit="10" d="M 1523.56507 1724.03878 L 1523.56507 1724.03878 " transform="matrix(0.0997634, 0, 0, -0.0997634, -0.000000000000002776, 185.121041)"/>
<path fill="none" stroke-width="5" stroke-linecap="round" stroke-linejoin="round" stroke="rgb(0%, 0%, 0%)" stroke-opacity="1" stroke-miterlimit="10" d="M 1523.56507 1724.03878 L 1447.604127 1855.639155 " transform="matrix(0.0997634, 0, 0, -0.0997634, -0.000000000000002776, 185.121041)"/>
<path fill="none" stroke-width="5" stroke-linecap="round" stroke-linejoin="round" stroke="rgb(0%, 0%, 0%)" stroke-opacity="1" stroke-miterlimit="10" d="M 1208.87533 1855.639155 L 1132.914388 1724.03878 L 1230.567269 1554.88864 L 1425.912188 1554.88864 L 1523.56507 1724.03878 " transform="matrix(0.0997634, 0, 0, -0.0997634, -0.000000000000002776, 185.121041)"/>
<path fill="none" stroke-width="5" stroke-linecap="round" stroke-linejoin="round" stroke="rgb(0%, 0%, 0%)" stroke-opacity="1" stroke-miterlimit="10" d="M 1816.562871 201.609209 L 1718.909989 370.759349 L 1523.56507 370.759349 L 1425.912188 201.609209 L 1523.56507 32.459068 L 1718.909989 32.459068 L 1816.562871 201.609209 " transform="matrix(0.0997634, 0, 0, -0.0997634, -0.000000000000002776, 185.121041)"/>
<path fill="none" stroke-width="5" stroke-linecap="round" stroke-linejoin="round" stroke="rgb(0%, 0%, 0%)" stroke-opacity="1" stroke-miterlimit="10" d="M 1816.562871 539.909489 L 1718.909989 709.059629 L 1523.56507 709.059629 L 1425.912188 539.909489 L 1523.56507 370.759349 L 1718.909989 370.759349 L 1816.562871 539.909489 " transform="matrix(0.0997634, 0, 0, -0.0997634, -0.000000000000002776, 185.121041)"/>
<path fill="none" stroke-width="5" stroke-linecap="round" stroke-linejoin="round" stroke="rgb(0%, 0%, 0%)" stroke-opacity="1" stroke-miterlimit="10" d="M 1816.562871 878.248924 L 1718.909989 1047.399064 L 1523.56507 1047.399064 L 1425.912188 878.248924 L 1523.56507 709.059629 L 1718.909989 709.059629 L 1816.562871 878.248924 " transform="matrix(0.0997634, 0, 0, -0.0997634, -0.000000000000002776, 185.121041)"/>
<path fill="none" stroke-width="5" stroke-linecap="round" stroke-linejoin="round" stroke="rgb(0%, 0%, 0%)" stroke-opacity="1" stroke-miterlimit="10" d="M 1816.562871 1216.549204 L 1718.909989 1385.699345 L 1523.56507 1385.699345 L 1425.912188 1216.549204 L 1523.56507 1047.399064 L 1718.909989 1047.399064 L 1816.562871 1216.549204 " transform="matrix(0.0997634, 0, 0, -0.0997634, -0.000000000000002776, 185.121041)"/>
<path fill="none" stroke-width="5" stroke-linecap="round" stroke-linejoin="round" stroke="rgb(0%, 0%, 0%)" stroke-opacity="1" stroke-miterlimit="10" d="M 1816.562871 1554.88864 L 1718.909989 1724.03878 L 1523.56507 1724.03878 L 1425.912188 1554.88864 L 1523.56507 1385.699345 L 1718.909989 1385.699345 L 1816.562871 1554.88864 " transform="matrix(0.0997634, 0, 0, -0.0997634, -0.000000000000002776, 185.121041)"/>
<path fill="none" stroke-width="5" stroke-linecap="round" stroke-linejoin="round" stroke="rgb(0%, 0%, 0%)" stroke-opacity="1" stroke-miterlimit="10" d="M 1447.604127 1855.639155 L 1523.56507 1724.03878 L 1718.909989 1724.03878 " transform="matrix(0.0997634, 0, 0, -0.0997634, -0.000000000000002776, 185.121041)"/>
<path fill="none" stroke-width="5" stroke-linecap="round" stroke-linejoin="round" stroke="rgb(0%, 0%, 0%)" stroke-opacity="1" stroke-miterlimit="10" d="M 1718.909989 1724.03878 L 1794.870931 1855.639155 " transform="matrix(0.0997634, 0, 0, -0.0997634, -0.000000000000002776, 185.121041)"/>
<g clip-path="url(#clip-0)">
<path fill="none" stroke-width="5" stroke-linecap="round" stroke-linejoin="round" stroke="rgb(0%, 0%, 0%)" stroke-opacity="1" stroke-miterlimit="10" d="M 1855.639685 539.909489 L 1816.562871 539.909489 L 1718.909989 370.759349 L 1816.562871 201.609209 " transform="matrix(0.0997634, 0, 0, -0.0997634, -0.000000000000002776, 185.121041)"/>
</g>
<g clip-path="url(#clip-1)">
<path fill="none" stroke-width="5" stroke-linecap="round" stroke-linejoin="round" stroke="rgb(0%, 0%, 0%)" stroke-opacity="1" stroke-miterlimit="10" d="M 1816.562871 201.609209 L 1855.639685 201.609209 " transform="matrix(0.0997634, 0, 0, -0.0997634, -0.000000000000002776, 185.121041)"/>
</g>
<g clip-path="url(#clip-2)">
<path fill="none" stroke-width="5" stroke-linecap="round" stroke-linejoin="round" stroke="rgb(0%, 0%, 0%)" stroke-opacity="1" stroke-miterlimit="10" d="M 1855.639685 878.248924 L 1816.562871 878.248924 L 1718.909989 709.059629 L 1816.562871 539.909489 " transform="matrix(0.0997634, 0, 0, -0.0997634, -0.000000000000002776, 185.121041)"/>
</g>
<g clip-path="url(#clip-3)">
<path fill="none" stroke-width="5" stroke-linecap="round" stroke-linejoin="round" stroke="rgb(0%, 0%, 0%)" stroke-opacity="1" stroke-miterlimit="10" d="M 1816.562871 539.909489 L 1855.639685 539.909489 " transform="matrix(0.0997634, 0, 0, -0.0997634, -0.000000000000002776, 185.121041)"/>
</g>
<g clip-path="url(#clip-4)">
<path fill="none" stroke-width="5" stroke-linecap="round" stroke-linejoin="round" stroke="rgb(0%, 0%, 0%)" stroke-opacity="1" stroke-miterlimit="10" d="M 1855.639685 1216.549204 L 1816.562871 1216.549204 L 1718.909989 1047.399064 L 1816.562871 878.248924 " transform="matrix(0.0997634, 0, 0, -0.0997634, -0.000000000000002776, 185.121041)"/>
</g>
<g clip-path="url(#clip-5)">
<path fill="none" stroke-width="5" stroke-linecap="round" stroke-linejoin="round" stroke="rgb(0%, 0%, 0%)" stroke-opacity="1" stroke-miterlimit="10" d="M 1816.562871 878.248924 L 1855.639685 878.248924 " transform="matrix(0.0997634, 0, 0, -0.0997634, -0.000000000000002776, 185.121041)"/>
</g>
<g clip-path="url(#clip-6)">
<path fill="none" stroke-width="5" stroke-linecap="round" stroke-linejoin="round" stroke="rgb(0%, 0%, 0%)" stroke-opacity="1" stroke-miterlimit="10" d="M 1855.639685 1554.88864 L 1816.562871 1554.88864 L 1718.909989 1385.699345 L 1816.562871 1216.549204 " transform="matrix(0.0997634, 0, 0, -0.0997634, -0.000000000000002776, 185.121041)"/>
</g>
<g clip-path="url(#clip-7)">
<path fill="none" stroke-width="5" stroke-linecap="round" stroke-linejoin="round" stroke="rgb(0%, 0%, 0%)" stroke-opacity="1" stroke-miterlimit="10" d="M 1816.562871 1216.549204 L 1855.639685 1216.549204 " transform="matrix(0.0997634, 0, 0, -0.0997634, -0.000000000000002776, 185.121041)"/>
</g>
<path fill="none" stroke-width="5" stroke-linecap="round" stroke-linejoin="round" stroke="rgb(0%, 0%, 0%)" stroke-opacity="1" stroke-miterlimit="10" d="M 1794.870931 1855.639155 L 1718.909989 1724.03878 L 1816.562871 1554.88864 " transform="matrix(0.0997634, 0, 0, -0.0997634, -0.000000000000002776, 185.121041)"/>
<g clip-path="url(#clip-8)">
<path fill="none" stroke-width="5" stroke-linecap="round" stroke-linejoin="round" stroke="rgb(0%, 0%, 0%)" stroke-opacity="1" stroke-miterlimit="10" d="M 1816.562871 1554.88864 L 1855.639685 1554.88864 " transform="matrix(0.0997634, 0, 0, -0.0997634, -0.000000000000002776, 185.121041)"/>
</g>
</svg>
