<?xml version="1.0" encoding="utf-8"?>
<svg xmlns="http://www.w3.org/2000/svg" viewBox="206.07 49.327 175.663 164.732">
  <defs>
    <clipPath id="clip-0">
      <path clip-rule="nonzero" d="M 171 131 L 185.121094 131 L 185.121094 166 L 171 166 Z M 171 131 "/>
    </clipPath>
    <clipPath id="clip-1">
      <path clip-rule="nonzero" d="M 180 164 L 185.121094 164 L 185.121094 166 L 180 166 Z M 180 164 "/>
    </clipPath>
    <clipPath id="clip-2">
      <path clip-rule="nonzero" d="M 171 97 L 185.121094 97 L 185.121094 132 L 171 132 Z M 171 97 "/>
    </clipPath>
    <clipPath id="clip-3">
      <path clip-rule="nonzero" d="M 180 131 L 185.121094 131 L 185.121094 132 L 180 132 Z M 180 131 "/>
    </clipPath>
    <clipPath id="clip-4">
      <path clip-rule="nonzero" d="M 171 63 L 185.121094 63 L 185.121094 98 L 171 98 Z M 171 63 "/>
    </clipPath>
    <clipPath id="clip-5">
      <path clip-rule="nonzero" d="M 180 97 L 185.121094 97 L 185.121094 98 L 180 98 Z M 180 97 "/>
    </clipPath>
    <clipPath id="clip-6">
      <path clip-rule="nonzero" d="M 171 29 L 185.121094 29 L 185.121094 65 L 171 65 Z M 171 29 "/>
    </clipPath>
    <clipPath id="clip-7">
      <path clip-rule="nonzero" d="M 180 63 L 185.121094 63 L 185.121094 65 L 180 65 Z M 180 63 "/>
    </clipPath>
    <clipPath id="clip-8">
      <path clip-rule="nonzero" d="M 180 29 L 185.121094 29 L 185.121094 31 L 180 31 Z M 180 29 "/>
    </clipPath>
  </defs>
  <path fill="none" stroke-linecap="round" stroke-linejoin="round" stroke="rgb(0%, 0%, 0%)" stroke-miterlimit="10" d="M 235.515 197.763 L 225.773 180.888 L 206.289 180.888" style="stroke-width: 0.3px; stroke-opacity: 0.7;"/>
  <path fill="none" stroke-linecap="round" stroke-linejoin="round" stroke="rgb(0%, 0%, 0%)" stroke-miterlimit="10" d="M 206.289 180.888 L 200.441 191.013" style="stroke-width: 0.3px; stroke-opacity: 0.7;"/>
  <path fill="none" stroke-linecap="round" stroke-linejoin="round" stroke="rgb(0%, 0%, 0%)" stroke-miterlimit="10" d="M 200.441 204.513 L 206.289 214.638 L 225.773 214.638 L 235.515 197.763" style="stroke-width: 0.3px; stroke-opacity: 0.7;"/>
  <path fill="none" stroke-linecap="round" stroke-linejoin="round" stroke="rgb(0%, 0%, 0%)" stroke-miterlimit="10" d="M 235.515 164.013 L 225.773 147.134 L 206.289 147.134" style="stroke-width: 0.3px; stroke-opacity: 0.7;"/>
  <path fill="none" stroke-linecap="round" stroke-linejoin="round" stroke="rgb(0%, 0%, 0%)" stroke-miterlimit="10" d="M 206.289 147.134 L 200.441 157.263" style="stroke-width: 0.3px; stroke-opacity: 0.7;"/>
  <path fill="none" stroke-linecap="round" stroke-linejoin="round" stroke="rgb(0%, 0%, 0%)" stroke-miterlimit="10" d="M 200.441 170.763 L 206.289 180.888 L 225.773 180.888 L 235.515 164.013" style="stroke-width: 0.3px; stroke-opacity: 0.7;"/>
  <path fill="none" stroke-linecap="round" stroke-linejoin="round" stroke="rgb(0%, 0%, 0%)" stroke-miterlimit="10" d="M 235.515 130.259 L 225.773 113.384 L 206.289 113.384" style="stroke-width: 0.3px; stroke-opacity: 0.7;"/>
  <path fill="none" stroke-linecap="round" stroke-linejoin="round" stroke="rgb(0%, 0%, 0%)" stroke-miterlimit="10" d="M 206.289 113.384 L 200.441 123.509" style="stroke-width: 0.3px; stroke-opacity: 0.7;"/>
  <path fill="none" stroke-linecap="round" stroke-linejoin="round" stroke="rgb(0%, 0%, 0%)" stroke-miterlimit="10" d="M 200.441 137.009 L 206.289 147.134 L 225.773 147.134 L 235.515 130.259" style="stroke-width: 0.3px; stroke-opacity: 0.7;"/>
  <path fill="none" stroke-linecap="round" stroke-linejoin="round" stroke="rgb(0%, 0%, 0%)" stroke-miterlimit="10" d="M 235.515 96.509 L 225.773 79.631 L 206.289 79.631" style="stroke-width: 0.3px; stroke-opacity: 0.7;"/>
  <path fill="none" stroke-linecap="round" stroke-linejoin="round" stroke="rgb(0%, 0%, 0%)" stroke-miterlimit="10" d="M 206.289 79.631 L 200.441 89.756" style="stroke-width: 0.3px; stroke-opacity: 0.7;"/>
  <path fill="none" stroke-linecap="round" stroke-linejoin="round" stroke="rgb(0%, 0%, 0%)" stroke-miterlimit="10" d="M 200.441 103.259 L 206.289 113.384 L 225.773 113.384 L 235.515 96.509" style="stroke-width: 0.3px; stroke-opacity: 0.7;"/>
  <path fill="none" stroke-width="5" stroke-linecap="round" stroke-linejoin="round" stroke="rgb(0%, 0%, 0%)" stroke-opacity="1" stroke-miterlimit="10" d="M 235.517 62.756" style="stroke-opacity: 0.9;"/>
  <path fill="none" stroke-linecap="round" stroke-linejoin="round" stroke="rgb(0%, 0%, 0%)" stroke-miterlimit="10" d="M 235.515 62.756 L 227.937 49.627" style="stroke-width: 0.3px; stroke-opacity: 0.7;"/>
  <path fill="none" stroke-linecap="round" stroke-linejoin="round" stroke="rgb(0%, 0%, 0%)" stroke-miterlimit="10" d="M 204.125 49.627 L 200.441 56.006" style="stroke-width: 0.3px; stroke-opacity: 0.7;"/>
  <path fill="none" stroke-linecap="round" stroke-linejoin="round" stroke="rgb(0%, 0%, 0%)" stroke-miterlimit="10" d="M 200.441 69.506 L 206.289 79.631 L 225.773 79.631 L 235.515 62.756" style="stroke-width: 0.3px; stroke-opacity: 0.7;"/>
  <path fill="none" stroke-linecap="round" stroke-linejoin="round" stroke="rgb(0%, 0%, 0%)" stroke-miterlimit="10" d="M 264.745 214.638 L 255.003 197.763 L 235.515 197.763 L 225.773 214.638 L 235.515 231.513 L 255.003 231.513 L 264.745 214.638" style="stroke-width: 0.3px; stroke-opacity: 0.7;"/>
  <path fill="none" stroke-linecap="round" stroke-linejoin="round" stroke="rgb(0%, 0%, 0%)" stroke-miterlimit="10" d="M 264.745 180.888 L 255.003 164.013 L 235.515 164.013 L 225.773 180.888 L 235.515 197.763 L 255.003 197.763 L 264.745 180.888" style="stroke-width: 0.3px; stroke-opacity: 0.7;"/>
  <path fill="none" stroke-linecap="round" stroke-linejoin="round" stroke="rgb(0%, 0%, 0%)" stroke-miterlimit="10" d="M 264.745 147.134 L 255.003 130.259 L 235.515 130.259 L 225.773 147.134 L 235.515 164.013 L 255.003 164.013 L 264.745 147.134" style="stroke-width: 0.3px; stroke-opacity: 0.7;"/>
  <path fill="none" stroke-linecap="round" stroke-linejoin="round" stroke="rgb(0%, 0%, 0%)" stroke-miterlimit="10" d="M 264.745 113.384 L 255.003 96.509 L 235.515 96.509 L 225.773 113.384 L 235.515 130.259 L 255.003 130.259 L 264.745 113.384" style="stroke-width: 0.3px; stroke-opacity: 0.7;"/>
  <path fill="none" stroke-linecap="round" stroke-linejoin="round" stroke="rgb(0%, 0%, 0%)" stroke-miterlimit="10" d="M 264.745 79.631 L 255.003 62.756 L 235.515 62.756 L 225.773 79.631 L 235.515 96.509 L 255.003 96.509 L 264.745 79.631" style="stroke-width: 0.3px; stroke-opacity: 0.7;"/>
  <path fill="none" stroke-linecap="round" stroke-linejoin="round" stroke="rgb(0%, 0%, 0%)" stroke-miterlimit="10" d="M 227.937 49.627 L 235.515 62.756 L 255.003 62.756" style="stroke-width: 0.3px; stroke-opacity: 0.7;"/>
  <path fill="none" stroke-linecap="round" stroke-linejoin="round" stroke="rgb(0%, 0%, 0%)" stroke-miterlimit="10" d="M 255.003 62.756 L 262.581 49.627" style="stroke-width: 0.3px; stroke-opacity: 0.7;"/>
  <path fill="none" stroke-linecap="round" stroke-linejoin="round" stroke="rgb(0%, 0%, 0%)" stroke-miterlimit="10" d="M 293.976 197.763 L 284.234 180.888 L 264.745 180.888 L 255.003 197.763 L 264.745 214.638 L 284.234 214.638 L 293.976 197.763" style="stroke-width: 0.3px; stroke-opacity: 0.7;"/>
  <path fill="none" stroke-linecap="round" stroke-linejoin="round" stroke="rgb(0%, 0%, 0%)" stroke-miterlimit="10" d="M 293.976 164.013 L 284.234 147.134 L 264.745 147.134 L 255.003 164.013 L 264.745 180.888 L 284.234 180.888 L 293.976 164.013" style="stroke-width: 0.3px; stroke-opacity: 0.7;"/>
  <path fill="none" stroke-linecap="round" stroke-linejoin="round" stroke="rgb(0%, 0%, 0%)" stroke-miterlimit="10" d="M 293.976 130.259 L 284.234 113.384 L 264.745 113.384 L 255.003 130.259 L 264.745 147.134 L 284.234 147.134 L 293.976 130.259" style="stroke-width: 0.3px; stroke-opacity: 0.7;"/>
  <path fill="none" stroke-linecap="round" stroke-linejoin="round" stroke="rgb(0%, 0%, 0%)" stroke-miterlimit="10" d="M 293.976 96.509 L 284.234 79.631 L 264.745 79.631 L 255.003 96.509 L 264.745 113.384 L 284.234 113.384 L 293.976 96.509" style="stroke-width: 0.3px; stroke-opacity: 0.7;"/>
  <path fill="none" stroke-width="5" stroke-linecap="round" stroke-linejoin="round" stroke="rgb(0%, 0%, 0%)" stroke-opacity="1" stroke-miterlimit="10" d="M 293.976 62.755" style="stroke-opacity: 0.9;"/>
  <path fill="none" stroke-linecap="round" stroke-linejoin="round" stroke="rgb(0%, 0%, 0%)" stroke-miterlimit="10" d="M 293.976 62.756 L 286.398 49.627" style="stroke-width: 0.3px; stroke-opacity: 0.7;"/>
  <path fill="none" stroke-linecap="round" stroke-linejoin="round" stroke="rgb(0%, 0%, 0%)" stroke-miterlimit="10" d="M 262.581 49.627 L 255.003 62.756 L 264.745 79.631 L 284.234 79.631 L 293.976 62.756" style="stroke-width: 0.3px; stroke-opacity: 0.7;"/>
  <path fill="none" stroke-linecap="round" stroke-linejoin="round" stroke="rgb(0%, 0%, 0%)" stroke-miterlimit="10" d="M 323.206 214.638 L 313.464 197.763 L 293.976 197.763 L 284.234 214.638 L 293.976 231.513 L 313.464 231.513 L 323.206 214.638" style="stroke-width: 0.3px; stroke-opacity: 0.7;"/>
  <path fill="none" stroke-linecap="round" stroke-linejoin="round" stroke="rgb(0%, 0%, 0%)" stroke-miterlimit="10" d="M 323.206 180.888 L 313.464 164.013 L 293.976 164.013 L 284.234 180.888 L 293.976 197.763 L 313.464 197.763 L 323.206 180.888" style="stroke-width: 0.3px; stroke-opacity: 0.7;"/>
  <path fill="none" stroke-linecap="round" stroke-linejoin="round" stroke="rgb(0%, 0%, 0%)" stroke-miterlimit="10" d="M 323.206 147.134 L 313.464 130.259 L 293.976 130.259 L 284.234 147.134 L 293.976 164.013 L 313.464 164.013 L 323.206 147.134" style="stroke-width: 0.3px; stroke-opacity: 0.7;"/>
  <path fill="none" stroke-linecap="round" stroke-linejoin="round" stroke="rgb(0%, 0%, 0%)" stroke-miterlimit="10" d="M 323.206 113.384 L 313.464 96.509 L 293.976 96.509 L 284.234 113.384 L 293.976 130.259 L 313.464 130.259 L 323.206 113.384" style="stroke-width: 0.3px; stroke-opacity: 0.7;"/>
  <path fill="none" stroke-linecap="round" stroke-linejoin="round" stroke="rgb(0%, 0%, 0%)" stroke-miterlimit="10" d="M 323.206 79.631 L 313.464 62.756 L 293.976 62.756 L 284.234 79.631 L 293.976 96.509 L 313.464 96.509 L 323.206 79.631" style="stroke-width: 0.3px; stroke-opacity: 0.7;"/>
  <path fill="none" stroke-linecap="round" stroke-linejoin="round" stroke="rgb(0%, 0%, 0%)" stroke-miterlimit="10" d="M 286.398 49.627 L 293.976 62.756 L 313.464 62.756" style="stroke-width: 0.3px; stroke-opacity: 0.7;"/>
  <path fill="none" stroke-linecap="round" stroke-linejoin="round" stroke="rgb(0%, 0%, 0%)" stroke-miterlimit="10" d="M 313.464 62.756 L 321.042 49.627" style="stroke-width: 0.3px; stroke-opacity: 0.7;"/>
  <path fill="none" stroke-linecap="round" stroke-linejoin="round" stroke="rgb(0%, 0%, 0%)" stroke-miterlimit="10" d="M 352.436 197.763 L 342.694 180.888 L 323.206 180.888 L 313.464 197.763 L 323.206 214.638 L 342.694 214.638 L 352.436 197.763" style="stroke-width: 0.3px; stroke-opacity: 0.7;"/>
  <path fill="none" stroke-linecap="round" stroke-linejoin="round" stroke="rgb(0%, 0%, 0%)" stroke-miterlimit="10" d="M 352.436 164.013 L 342.694 147.134 L 323.206 147.134 L 313.464 164.013 L 323.206 180.888 L 342.694 180.888 L 352.436 164.013" style="stroke-width: 0.3px; stroke-opacity: 0.7;"/>
  <path fill="none" stroke-linecap="round" stroke-linejoin="round" stroke="rgb(0%, 0%, 0%)" stroke-miterlimit="10" d="M 352.436 130.259 L 342.694 113.384 L 323.206 113.384 L 313.464 130.259 L 323.206 147.134 L 342.694 147.134 L 352.436 130.259" style="stroke-width: 0.3px; stroke-opacity: 0.7;"/>
  <path fill="none" stroke-linecap="round" stroke-linejoin="round" stroke="rgb(0%, 0%, 0%)" stroke-miterlimit="10" d="M 352.436 96.509 L 342.694 79.631 L 323.206 79.631 L 313.464 96.509 L 323.206 113.384 L 342.694 113.384 L 352.436 96.509" style="stroke-width: 0.3px; stroke-opacity: 0.7;"/>
  <path fill="none" stroke-width="5" stroke-linecap="round" stroke-linejoin="round" stroke="rgb(0%, 0%, 0%)" stroke-opacity="1" stroke-miterlimit="10" d="M 352.438 62.754" style="stroke-opacity: 0.9;"/>
  <path fill="none" stroke-linecap="round" stroke-linejoin="round" stroke="rgb(0%, 0%, 0%)" stroke-miterlimit="10" d="M 352.436 62.756 L 344.858 49.627" style="stroke-width: 0.3px; stroke-opacity: 0.7;"/>
  <path fill="none" stroke-linecap="round" stroke-linejoin="round" stroke="rgb(0%, 0%, 0%)" stroke-miterlimit="10" d="M 321.042 49.627 L 313.464 62.756 L 323.206 79.631 L 342.694 79.631 L 352.436 62.756" style="stroke-width: 0.3px; stroke-opacity: 0.7;"/>
  <path fill="none" stroke-linecap="round" stroke-linejoin="round" stroke="rgb(0%, 0%, 0%)" stroke-miterlimit="10" d="M 381.667 214.638 L 371.925 197.763 L 352.436 197.763 L 342.694 214.638 L 352.436 231.513 L 371.925 231.513 L 381.667 214.638" style="stroke-width: 0.3px; stroke-opacity: 0.7;"/>
  <path fill="none" stroke-linecap="round" stroke-linejoin="round" stroke="rgb(0%, 0%, 0%)" stroke-miterlimit="10" d="M 381.667 180.888 L 371.925 164.013 L 352.436 164.013 L 342.694 180.888 L 352.436 197.763 L 371.925 197.763 L 381.667 180.888" style="stroke-width: 0.3px; stroke-opacity: 0.7;"/>
  <path fill="none" stroke-linecap="round" stroke-linejoin="round" stroke="rgb(0%, 0%, 0%)" stroke-miterlimit="10" d="M 381.667 147.134 L 371.925 130.259 L 352.436 130.259 L 342.694 147.134 L 352.436 164.013 L 371.925 164.013 L 381.667 147.134" style="stroke-width: 0.3px; stroke-opacity: 0.7;"/>
  <path fill="none" stroke-linecap="round" stroke-linejoin="round" stroke="rgb(0%, 0%, 0%)" stroke-miterlimit="10" d="M 381.667 113.384 L 371.925 96.509 L 352.436 96.509 L 342.694 113.384 L 352.436 130.259 L 371.925 130.259 L 381.667 113.384" style="stroke-width: 0.3px; stroke-opacity: 0.7;"/>
  <path fill="none" stroke-linecap="round" stroke-linejoin="round" stroke="rgb(0%, 0%, 0%)" stroke-miterlimit="10" d="M 381.667 79.631 L 371.925 62.756 L 352.436 62.756 L 342.694 79.631 L 352.436 96.509 L 371.925 96.509 L 381.667 79.631" style="stroke-width: 0.3px; stroke-opacity: 0.7;"/>
  <path fill="none" stroke-linecap="round" stroke-linejoin="round" stroke="rgb(0%, 0%, 0%)" stroke-miterlimit="10" d="M 344.858 49.627 L 352.436 62.756 L 371.925 62.756" style="stroke-width: 0.3px; stroke-opacity: 0.7;"/>
  <path fill="none" stroke-linecap="round" stroke-linejoin="round" stroke="rgb(0%, 0%, 0%)" stroke-miterlimit="10" d="M 371.925 62.756 L 379.503 49.627" style="stroke-width: 0.3px; stroke-opacity: 0.7;"/>
  <g clip-path="url(#clip-0)" transform="matrix(1, 0, 0, 1, 200.441, 49.6296)">
    <path fill="none" stroke-linecap="round" stroke-linejoin="round" stroke="rgb(0%, 0%, 0%)" stroke-miterlimit="10" d="M 1855.639685 539.909489 L 1816.562871 539.909489 L 1718.909989 370.759349 L 1816.562871 201.609209 " transform="matrix(0.0997634, 0, 0, -0.0997634, -0.000000000000002776, 185.121041)" style="stroke-width: 3.00711px; stroke-opacity: 0.7;"/>
  </g>
  <g clip-path="url(#clip-1)" transform="matrix(1, 0, 0, 1, 200.441, 49.6296)">
    <path fill="none" stroke-linecap="round" stroke-linejoin="round" stroke="rgb(0%, 0%, 0%)" stroke-miterlimit="10" d="M 1816.562871 201.609209 L 1855.639685 201.609209 " transform="matrix(0.0997634, 0, 0, -0.0997634, -0.000000000000002776, 185.121041)" style="stroke-width: 3.00711px; stroke-opacity: 0.7;"/>
  </g>
  <g clip-path="url(#clip-2)" transform="matrix(1, 0, 0, 1, 200.441, 49.6296)">
    <path fill="none" stroke-linecap="round" stroke-linejoin="round" stroke="rgb(0%, 0%, 0%)" stroke-miterlimit="10" d="M 1855.639685 878.248924 L 1816.562871 878.248924 L 1718.909989 709.059629 L 1816.562871 539.909489 " transform="matrix(0.0997634, 0, 0, -0.0997634, -0.000000000000002776, 185.121041)" style="stroke-width: 3.00711px; stroke-opacity: 0.7;"/>
  </g>
  <g clip-path="url(#clip-3)" transform="matrix(1, 0, 0, 1, 200.441, 49.6296)">
    <path fill="none" stroke-linecap="round" stroke-linejoin="round" stroke="rgb(0%, 0%, 0%)" stroke-miterlimit="10" d="M 1816.562871 539.909489 L 1855.639685 539.909489 " transform="matrix(0.0997634, 0, 0, -0.0997634, -0.000000000000002776, 185.121041)" style="stroke-width: 3.00711px; stroke-opacity: 0.7;"/>
  </g>
  <g clip-path="url(#clip-4)" transform="matrix(1, 0, 0, 1, 200.441, 49.6296)">
    <path fill="none" stroke-linecap="round" stroke-linejoin="round" stroke="rgb(0%, 0%, 0%)" stroke-miterlimit="10" d="M 1855.639685 1216.549204 L 1816.562871 1216.549204 L 1718.909989 1047.399064 L 1816.562871 878.248924 " transform="matrix(0.0997634, 0, 0, -0.0997634, -0.000000000000002776, 185.121041)" style="stroke-width: 3.00711px; stroke-opacity: 0.7;"/>
  </g>
  <g clip-path="url(#clip-5)" transform="matrix(1, 0, 0, 1, 200.441, 49.6296)">
    <path fill="none" stroke-linecap="round" stroke-linejoin="round" stroke="rgb(0%, 0%, 0%)" stroke-miterlimit="10" d="M 1816.562871 878.248924 L 1855.639685 878.248924 " transform="matrix(0.0997634, 0, 0, -0.0997634, -0.000000000000002776, 185.121041)" style="stroke-width: 3.00711px; stroke-opacity: 0.7;"/>
  </g>
  <g clip-path="url(#clip-6)" transform="matrix(1, 0, 0, 1, 200.441, 49.6296)">
    <path fill="none" stroke-linecap="round" stroke-linejoin="round" stroke="rgb(0%, 0%, 0%)" stroke-miterlimit="10" d="M 1855.639685 1554.88864 L 1816.562871 1554.88864 L 1718.909989 1385.699345 L 1816.562871 1216.549204 " transform="matrix(0.0997634, 0, 0, -0.0997634, -0.000000000000002776, 185.121041)" style="stroke-width: 3.00711px; stroke-opacity: 0.7;"/>
  </g>
  <g clip-path="url(#clip-7)" transform="matrix(1, 0, 0, 1, 200.441, 49.6296)">
    <path fill="none" stroke-linecap="round" stroke-linejoin="round" stroke="rgb(0%, 0%, 0%)" stroke-miterlimit="10" d="M 1816.562871 1216.549204 L 1855.639685 1216.549204 " transform="matrix(0.0997634, 0, 0, -0.0997634, -0.000000000000002776, 185.121041)" style="stroke-width: 3.00711px; stroke-opacity: 0.7;"/>
  </g>
  <path fill="none" stroke-linecap="round" stroke-linejoin="round" stroke="rgb(0%, 0%, 0%)" stroke-miterlimit="10" d="M 379.503 49.627 L 371.925 62.756 L 381.667 79.631" style="stroke-width: 0.3px; stroke-opacity: 0.7;"/>
  <g clip-path="url(#clip-8)" transform="matrix(1, 0, 0, 1, 200.441, 49.6296)">
    <path fill="none" stroke-linecap="round" stroke-linejoin="round" stroke="rgb(0%, 0%, 0%)" stroke-miterlimit="10" d="M 1816.562871 1554.88864 L 1855.639685 1554.88864 " transform="matrix(0.0997634, 0, 0, -0.0997634, -0.000000000000002776, 185.121041)" style="stroke-width: 3.00711px; stroke-opacity: 0.7;"/>
  </g>
</svg>